<svg width="41" height="40" viewBox="0 0 41 40" fill="none" xmlns="http://www.w3.org/2000/svg">
<g clip-path="url(#clip0_786_3685)">
<rect width="40" height="40" rx="8.02238" transform="matrix(-1 0 0 1 40.1118 0)" fill="#0B4199"/>
<circle r="46.7683" transform="matrix(-1 0 0 1 20.0559 65.7395)" fill="#0C367A"/>
<g filter="url(#filter0_d_786_3685)">
<path d="M20.114 31.6641C23.9361 29.8431 29.4126 26.2268 29.4126 19.0712C29.4126 11.9156 29.0667 8.66406 29.0667 8.66406H11.1614C11.1614 8.66406 10.8126 11.9184 10.8126 19.0712C10.8126 26.224 16.2891 29.8431 20.114 31.6641Z" fill="#C3112B"/>
<path d="M19.2953 17.196C18.2576 17.2131 16.2371 17.253 14.4385 16.6574C14.4385 16.6574 14.4846 17.2929 14.4846 18.0367C14.4846 18.7804 14.4385 19.4131 14.4385 19.4131C16.0872 18.8602 18.1279 18.8602 19.2953 18.8602V22.8213H20.9296V18.8602C22.0999 18.8602 24.1377 18.8602 25.7893 19.4017C25.7893 19.4017 25.7403 18.7662 25.7403 18.0253C25.7403 17.2843 25.7893 16.646 25.7893 16.646C23.9878 17.2416 21.9673 17.2017 20.9296 17.1846V14.7139C22.2332 14.679 23.5334 14.8631 24.7747 15.2582C24.7747 15.2582 24.7257 14.6227 24.7257 13.8818C24.7257 13.1409 24.7747 12.5025 24.7747 12.5025C23.5354 12.8978 22.2371 13.0818 20.9354 13.0468C21.0083 11.8516 21.1789 10.6641 21.4456 9.49609C21.4456 9.49609 20.4944 9.57019 20.1139 9.57019C19.7334 9.57019 18.7794 9.49609 18.7794 9.49609C19.046 10.6641 19.2166 11.8516 19.2895 13.0468C17.9878 13.0817 16.6896 12.8976 15.4502 12.5025C15.4502 12.5025 15.4992 13.1409 15.4992 13.8818C15.4992 14.6227 15.4502 15.2582 15.4502 15.2582C16.6915 14.8631 17.9917 14.679 19.2953 14.7139V17.196Z" fill="white"/>
<path fill-rule="evenodd" clip-rule="evenodd" d="M27.5644 25.5864C25.6286 28.6315 22.5384 30.509 20.114 31.6641C17.6863 30.5084 14.5933 28.6282 12.6575 25.58C13.1557 24.716 13.939 23.7847 15.0006 23.7847C15.4418 23.7737 15.8774 23.885 16.2579 24.1061C16.6384 24.3272 16.9488 24.6492 17.1537 25.0357C17.1537 25.0357 18.1885 22.394 20.1139 22.394C22.0393 22.394 23.0712 25.0357 23.0712 25.0357C23.276 24.6503 23.5855 24.3291 23.9648 24.1081C24.3442 23.887 24.7784 23.7751 25.2186 23.7847C26.2813 23.7847 27.0659 24.7206 27.5644 25.5864Z" fill="#1E4E9D"/>
</g>
</g>
<defs>
<filter id="filter0_d_786_3685" x="-6.23507" y="-6.97959" width="52.6952" height="57.0951" filterUnits="userSpaceOnUse" color-interpolation-filters="sRGB">
<feFlood flood-opacity="0" result="BackgroundImageFix"/>
<feColorMatrix in="SourceAlpha" type="matrix" values="0 0 0 0 0 0 0 0 0 0 0 0 0 0 0 0 0 0 127 0" result="hardAlpha"/>
<feOffset dy="1.40392"/>
<feGaussianBlur stdDeviation="8.52378"/>
<feComposite in2="hardAlpha" operator="out"/>
<feColorMatrix type="matrix" values="0 0 0 0 0 0 0 0 0 0 0 0 0 0 0 0 0 0 0.55 0"/>
<feBlend mode="normal" in2="BackgroundImageFix" result="effect1_dropShadow_786_3685"/>
<feBlend mode="normal" in="SourceGraphic" in2="effect1_dropShadow_786_3685" result="shape"/>
</filter>
<clipPath id="clip0_786_3685">
<rect width="40" height="40" rx="8.02238" transform="matrix(-1 0 0 1 40.1118 0)" fill="white"/>
</clipPath>
</defs>
</svg>
