<svg width="220" height="40" viewBox="0 0 220 40" fill="none" xmlns="http://www.w3.org/2000/svg">
<g clip-path="url(#clip0_1023_1867)">
<rect width="40" height="40" rx="8.02238" transform="matrix(-1 0 0 1 40 0)" fill="#0B4199"/>
<circle r="46.7683" transform="matrix(-1 0 0 1 19.9441 65.7395)" fill="#0C367A"/>
<g filter="url(#filter0_d_1023_1867)">
<path d="M20.0012 31.666C23.8233 29.845 29.2998 26.2288 29.2998 19.0732C29.2998 11.9175 28.9539 8.66602 28.9539 8.66602H11.0486C11.0486 8.66602 10.6998 11.9204 10.6998 19.0732C10.6998 26.2259 16.1763 29.845 20.0012 31.666Z" fill="#C3112B"/>
<path d="M19.1828 17.198C18.1451 17.2151 16.1245 17.255 14.3259 16.6594C14.3259 16.6594 14.3721 17.2948 14.3721 18.0386C14.3721 18.7824 14.3259 19.415 14.3259 19.415C15.9747 18.8622 18.0154 18.8622 19.1828 18.8622V22.8233H20.8171V18.8622C21.9873 18.8622 24.0252 18.8622 25.6768 19.4036C25.6768 19.4036 25.6278 18.7681 25.6278 18.0272C25.6278 17.2863 25.6768 16.648 25.6768 16.648C23.8753 17.2436 21.8547 17.2037 20.8171 17.1866V14.7159C22.1207 14.681 23.4208 14.865 24.6622 15.2602C24.6622 15.2602 24.6132 14.6247 24.6132 13.8837C24.6132 13.1428 24.6622 12.5045 24.6622 12.5045C23.4228 12.8997 22.1246 13.0838 20.8228 13.0488C20.8957 11.8535 21.0664 10.6661 21.333 9.49805C21.333 9.49805 20.3818 9.57214 20.0013 9.57214C19.6209 9.57214 18.6668 9.49805 18.6668 9.49805C18.9335 10.6661 19.1041 11.8535 19.177 13.0488C17.8753 13.0836 16.577 12.8996 15.3377 12.5045C15.3377 12.5045 15.3867 13.1428 15.3867 13.8837C15.3867 14.6247 15.3377 15.2602 15.3377 15.2602C16.579 14.865 17.8791 14.681 19.1828 14.7159V17.198Z" fill="white"/>
<path fill-rule="evenodd" clip-rule="evenodd" d="M27.4517 25.5884C25.5159 28.6335 22.4257 30.511 20.0012 31.6661C17.5735 30.5103 14.4805 28.6302 12.5447 25.5819C13.043 24.7179 13.8262 23.7867 14.8878 23.7867C15.3291 23.7756 15.7646 23.8869 16.1452 24.108C16.5257 24.3291 16.836 24.6512 17.0409 25.0377C17.0409 25.0377 18.0757 22.396 20.0012 22.396C21.9266 22.396 22.9585 25.0377 22.9585 25.0377C23.1632 24.6523 23.4727 24.331 23.8521 24.11C24.2314 23.889 24.6656 23.777 25.1058 23.7867C26.1686 23.7867 26.9532 24.7226 27.4517 25.5884Z" fill="#1E4E9D"/>
</g>
</g>
<path d="M58.624 21.288C57.6 21.288 56.576 21.096 55.552 20.712C54.544 20.328 53.64 19.768 52.84 19.032L54.856 16.608C55.416 17.088 56.04 17.48 56.728 17.784C57.416 18.088 58.08 18.24 58.72 18.24C59.456 18.24 60 18.104 60.352 17.832C60.72 17.56 60.904 17.192 60.904 16.728C60.904 16.232 60.696 15.872 60.28 15.648C59.88 15.408 59.336 15.144 58.648 14.856L56.608 13.992C56.08 13.768 55.576 13.472 55.096 13.104C54.616 12.72 54.224 12.248 53.92 11.688C53.616 11.128 53.464 10.472 53.464 9.72C53.464 8.856 53.696 8.072 54.16 7.368C54.64 6.664 55.296 6.104 56.128 5.688C56.976 5.272 57.944 5.064 59.032 5.064C59.928 5.064 60.824 5.24 61.72 5.592C62.616 5.944 63.4 6.456 64.072 7.128L62.272 9.36C61.76 8.96 61.248 8.656 60.736 8.448C60.224 8.224 59.656 8.112 59.032 8.112C58.424 8.112 57.936 8.24 57.568 8.496C57.216 8.736 57.04 9.08 57.04 9.528C57.04 10.008 57.264 10.368 57.712 10.608C58.176 10.848 58.744 11.104 59.416 11.376L61.432 12.192C62.376 12.576 63.128 13.104 63.688 13.776C64.248 14.448 64.528 15.336 64.528 16.44C64.528 17.304 64.296 18.104 63.832 18.84C63.368 19.576 62.696 20.168 61.816 20.616C60.936 21.064 59.872 21.288 58.624 21.288ZM70.1359 21.288C68.9199 21.288 68.0719 20.928 67.5919 20.208C67.1279 19.472 66.8959 18.504 66.8959 17.304V4.176H70.4239V17.448C70.4239 17.816 70.4879 18.072 70.6159 18.216C70.7599 18.36 70.9039 18.432 71.0479 18.432C71.1279 18.432 71.1919 18.432 71.2399 18.432C71.3039 18.416 71.3839 18.4 71.4799 18.384L71.9119 21C71.7199 21.08 71.4719 21.144 71.1679 21.192C70.8799 21.256 70.5359 21.288 70.1359 21.288ZM78.8751 21.288C77.8671 21.288 76.9151 21.048 76.0191 20.568C75.1391 20.072 74.4271 19.36 73.8831 18.432C73.3391 17.488 73.0671 16.36 73.0671 15.048C73.0671 13.72 73.3391 12.592 73.8831 11.664C74.4271 10.736 75.1391 10.032 76.0191 9.552C76.9151 9.056 77.8671 8.808 78.8751 8.808C79.8831 8.808 80.8271 9.056 81.7071 9.552C82.5871 10.032 83.2991 10.736 83.8431 11.664C84.3871 12.592 84.6591 13.72 84.6591 15.048C84.6591 16.36 84.3871 17.488 83.8431 18.432C83.2991 19.36 82.5871 20.072 81.7071 20.568C80.8271 21.048 79.8831 21.288 78.8751 21.288ZM78.8751 18.432C79.5951 18.432 80.1391 18.128 80.5071 17.52C80.8751 16.896 81.0591 16.072 81.0591 15.048C81.0591 14.008 80.8751 13.184 80.5071 12.576C80.1391 11.968 79.5951 11.664 78.8751 11.664C78.1391 11.664 77.5871 11.968 77.2191 12.576C76.8671 13.184 76.6911 14.008 76.6911 15.048C76.6911 16.072 76.8671 16.896 77.2191 17.52C77.5871 18.128 78.1391 18.432 78.8751 18.432ZM89.6241 21L85.6161 9.096H89.1681L90.7041 14.712C90.8641 15.304 91.0161 15.912 91.1601 16.536C91.3201 17.144 91.4801 17.76 91.6401 18.384H91.7361C91.8801 17.76 92.0241 17.144 92.1681 16.536C92.3281 15.912 92.4881 15.304 92.6481 14.712L94.2081 9.096H97.5921L93.7041 21H89.6241ZM104.591 21.288C103.455 21.288 102.431 21.04 101.519 20.544C100.607 20.048 99.8871 19.336 99.3591 18.408C98.8311 17.48 98.5671 16.36 98.5671 15.048C98.5671 13.752 98.8311 12.64 99.3591 11.712C99.9031 10.784 100.607 10.072 101.471 9.576C102.335 9.064 103.239 8.808 104.183 8.808C105.319 8.808 106.255 9.064 106.991 9.576C107.743 10.072 108.303 10.752 108.671 11.616C109.055 12.464 109.247 13.432 109.247 14.52C109.247 14.824 109.231 15.128 109.199 15.432C109.167 15.72 109.135 15.936 109.103 16.08H101.975C102.135 16.944 102.495 17.584 103.055 18C103.615 18.4 104.287 18.6 105.071 18.6C105.919 18.6 106.775 18.336 107.639 17.808L108.815 19.944C108.207 20.36 107.527 20.688 106.775 20.928C106.023 21.168 105.295 21.288 104.591 21.288ZM101.951 13.752H106.247C106.247 13.096 106.087 12.56 105.767 12.144C105.463 11.712 104.959 11.496 104.255 11.496C103.711 11.496 103.223 11.688 102.791 12.072C102.359 12.44 102.079 13 101.951 13.752ZM111.685 21V9.096H114.565L114.805 10.608H114.901C115.413 10.128 115.973 9.712 116.581 9.36C117.205 8.992 117.917 8.808 118.717 8.808C120.013 8.808 120.949 9.24 121.525 10.104C122.117 10.952 122.413 12.12 122.413 13.608V21H118.885V14.064C118.885 13.2 118.765 12.608 118.525 12.288C118.301 11.968 117.933 11.808 117.421 11.808C116.973 11.808 116.589 11.912 116.269 12.12C115.949 12.312 115.597 12.592 115.213 12.96V21H111.685ZM128.923 21.288C128.139 21.288 127.331 21.136 126.499 20.832C125.683 20.528 124.971 20.128 124.363 19.632L125.947 17.424C126.491 17.824 127.011 18.136 127.507 18.36C128.019 18.568 128.523 18.672 129.019 18.672C129.547 18.672 129.931 18.584 130.171 18.408C130.411 18.216 130.531 17.968 130.531 17.664C130.531 17.392 130.411 17.168 130.171 16.992C129.947 16.816 129.651 16.656 129.283 16.512C128.915 16.352 128.523 16.192 128.107 16.032C127.627 15.84 127.147 15.6 126.667 15.312C126.203 15.024 125.811 14.656 125.491 14.208C125.171 13.744 125.011 13.184 125.011 12.528C125.011 11.424 125.427 10.528 126.259 9.84C127.107 9.152 128.211 8.808 129.571 8.808C130.483 8.808 131.283 8.968 131.971 9.288C132.675 9.592 133.275 9.936 133.771 10.32L132.187 12.432C131.771 12.112 131.355 11.864 130.939 11.688C130.523 11.512 130.107 11.424 129.691 11.424C128.779 11.424 128.323 11.736 128.323 12.36C128.323 12.744 128.547 13.04 128.995 13.248C129.459 13.44 129.995 13.648 130.603 13.872C131.115 14.048 131.611 14.28 132.091 14.568C132.587 14.84 132.995 15.208 133.315 15.672C133.651 16.12 133.819 16.712 133.819 17.448C133.819 18.52 133.403 19.432 132.571 20.184C131.739 20.92 130.523 21.288 128.923 21.288ZM136.06 21V4.176H139.492V13.824H139.588L143.356 9.096H147.196L143.02 13.992L147.508 21H143.692L141.004 16.368L139.492 18.072V21H136.06ZM153.641 21.288C152.633 21.288 151.681 21.048 150.785 20.568C149.905 20.072 149.193 19.36 148.649 18.432C148.105 17.488 147.833 16.36 147.833 15.048C147.833 13.72 148.105 12.592 148.649 11.664C149.193 10.736 149.905 10.032 150.785 9.552C151.681 9.056 152.633 8.808 153.641 8.808C154.649 8.808 155.593 9.056 156.473 9.552C157.353 10.032 158.065 10.736 158.609 11.664C159.153 12.592 159.425 13.72 159.425 15.048C159.425 16.36 159.153 17.488 158.609 18.432C158.065 19.36 157.353 20.072 156.473 20.568C155.593 21.048 154.649 21.288 153.641 21.288ZM153.641 18.432C154.361 18.432 154.905 18.128 155.273 17.52C155.641 16.896 155.825 16.072 155.825 15.048C155.825 14.008 155.641 13.184 155.273 12.576C154.905 11.968 154.361 11.664 153.641 11.664C152.905 11.664 152.353 11.968 151.985 12.576C151.633 13.184 151.457 14.008 151.457 15.048C151.457 16.072 151.633 16.896 151.985 17.52C152.353 18.128 152.905 18.432 153.641 18.432ZM163.647 21.288C163.039 21.288 162.527 21.08 162.111 20.664C161.711 20.232 161.511 19.704 161.511 19.08C161.511 18.44 161.711 17.912 162.111 17.496C162.527 17.064 163.039 16.848 163.647 16.848C164.255 16.848 164.759 17.064 165.159 17.496C165.575 17.912 165.783 18.44 165.783 19.08C165.783 19.704 165.575 20.232 165.159 20.664C164.759 21.08 164.255 21.288 163.647 21.288ZM172.306 21.288C171.522 21.288 170.714 21.136 169.882 20.832C169.066 20.528 168.354 20.128 167.746 19.632L169.33 17.424C169.874 17.824 170.394 18.136 170.89 18.36C171.402 18.568 171.906 18.672 172.402 18.672C172.93 18.672 173.314 18.584 173.554 18.408C173.794 18.216 173.914 17.968 173.914 17.664C173.914 17.392 173.794 17.168 173.554 16.992C173.33 16.816 173.034 16.656 172.666 16.512C172.298 16.352 171.906 16.192 171.49 16.032C171.01 15.84 170.53 15.6 170.05 15.312C169.586 15.024 169.194 14.656 168.874 14.208C168.554 13.744 168.394 13.184 168.394 12.528C168.394 11.424 168.81 10.528 169.642 9.84C170.49 9.152 171.594 8.808 172.954 8.808C173.866 8.808 174.666 8.968 175.354 9.288C176.058 9.592 176.658 9.936 177.154 10.32L175.57 12.432C175.154 12.112 174.738 11.864 174.322 11.688C173.906 11.512 173.49 11.424 173.074 11.424C172.162 11.424 171.706 11.736 171.706 12.36C171.706 12.744 171.93 13.04 172.378 13.248C172.842 13.44 173.378 13.648 173.986 13.872C174.498 14.048 174.994 14.28 175.474 14.568C175.97 14.84 176.378 15.208 176.698 15.672C177.034 16.12 177.202 16.712 177.202 17.448C177.202 18.52 176.786 19.432 175.954 20.184C175.122 20.92 173.906 21.288 172.306 21.288ZM179.443 21V4.176H182.875V13.824H182.971L186.739 9.096H190.579L186.403 13.992L190.891 21H187.075L184.387 16.368L182.875 18.072V21H179.443Z" fill="#0B4199"/>
<path d="M55.876 36.144C55.34 36.144 54.856 36.036 54.424 35.82C54 35.604 53.664 35.248 53.416 34.752C53.168 34.256 53.044 33.588 53.044 32.748V28.128H54.04V32.772C54.04 33.404 54.12 33.904 54.28 34.272C54.448 34.632 54.668 34.888 54.94 35.04C55.22 35.192 55.532 35.268 55.876 35.268C56.228 35.268 56.544 35.192 56.824 35.04C57.104 34.888 57.324 34.632 57.484 34.272C57.652 33.904 57.736 33.404 57.736 32.772V28.128H58.696V32.748C58.696 33.588 58.572 34.256 58.324 34.752C58.076 35.248 57.74 35.604 57.316 35.82C56.892 36.036 56.412 36.144 55.876 36.144ZM55.66 27.636L55.216 27.132L56.92 25.596L57.484 26.256L55.66 27.636ZM62.5955 36.144C62.1795 36.144 61.7835 36.068 61.4075 35.916C61.0315 35.756 60.7035 35.564 60.4235 35.34L60.9155 34.68C61.1715 34.88 61.4355 35.048 61.7075 35.184C61.9795 35.312 62.2875 35.376 62.6315 35.376C63.0155 35.376 63.3035 35.288 63.4955 35.112C63.6875 34.928 63.7835 34.712 63.7835 34.464C63.7835 34.264 63.7155 34.096 63.5795 33.96C63.4515 33.824 63.2835 33.712 63.0755 33.624C62.8755 33.528 62.6675 33.44 62.4515 33.36C62.1795 33.256 61.9115 33.14 61.6475 33.012C61.3835 32.876 61.1675 32.704 60.9995 32.496C60.8315 32.28 60.7475 32.008 60.7475 31.68C60.7475 31.208 60.9235 30.816 61.2755 30.504C61.6355 30.184 62.1315 30.024 62.7635 30.024C63.1235 30.024 63.4595 30.088 63.7715 30.216C64.0835 30.344 64.3515 30.5 64.5755 30.684L64.0955 31.308C63.8955 31.156 63.6875 31.032 63.4715 30.936C63.2555 30.84 63.0195 30.792 62.7635 30.792C62.3955 30.792 62.1235 30.876 61.9475 31.044C61.7795 31.212 61.6955 31.408 61.6955 31.632C61.6955 31.816 61.7555 31.968 61.8755 32.088C61.9955 32.2 62.1515 32.3 62.3435 32.388C62.5355 32.468 62.7395 32.552 62.9555 32.64C63.2355 32.744 63.5115 32.864 63.7835 33C64.0555 33.128 64.2795 33.304 64.4555 33.528C64.6395 33.744 64.7315 34.036 64.7315 34.404C64.7315 34.716 64.6475 35.004 64.4795 35.268C64.3195 35.532 64.0795 35.744 63.7595 35.904C63.4475 36.064 63.0595 36.144 62.5955 36.144ZM68.1005 36.144C67.4765 36.144 67.0405 35.964 66.7925 35.604C66.5525 35.244 66.4325 34.776 66.4325 34.2V30.972H65.5685V30.228L66.4805 30.168L66.6005 28.536H67.4285V30.168H69.0005V30.972H67.4285V34.212C67.4285 34.572 67.4925 34.852 67.6205 35.052C67.7565 35.244 67.9925 35.34 68.3285 35.34C68.4325 35.34 68.5445 35.324 68.6645 35.292C68.7845 35.252 68.8925 35.216 68.9885 35.184L69.1805 35.928C69.0205 35.984 68.8445 36.032 68.6525 36.072C68.4685 36.12 68.2845 36.144 68.1005 36.144ZM70.7192 36V30.168H71.5352L71.6192 31.224H71.6552C71.8552 30.856 72.0992 30.564 72.3872 30.348C72.6752 30.132 72.9832 30.024 73.3112 30.024C73.5432 30.024 73.7512 30.064 73.9352 30.144L73.7432 31.008C73.6472 30.976 73.5592 30.952 73.4792 30.936C73.3992 30.92 73.2992 30.912 73.1792 30.912C72.9312 30.912 72.6712 31.012 72.3992 31.212C72.1352 31.412 71.9032 31.76 71.7032 32.256V36H70.7192ZM77.5261 36.144C77.0061 36.144 76.5341 36.024 76.1101 35.784C75.6861 35.536 75.3501 35.184 75.1021 34.728C74.8541 34.272 74.7301 33.728 74.7301 33.096C74.7301 32.456 74.8541 31.908 75.1021 31.452C75.3581 30.996 75.6861 30.644 76.0861 30.396C76.4861 30.148 76.9061 30.024 77.3461 30.024C78.0901 30.024 78.6621 30.272 79.0621 30.768C79.4701 31.264 79.6741 31.928 79.6741 32.76C79.6741 32.864 79.6701 32.968 79.6621 33.072C79.6621 33.168 79.6541 33.252 79.6381 33.324H75.7021C75.7421 33.94 75.9341 34.432 76.2781 34.8C76.6301 35.168 77.0861 35.352 77.6461 35.352C77.9261 35.352 78.1821 35.312 78.4141 35.232C78.6541 35.144 78.8821 35.032 79.0981 34.896L79.4461 35.544C79.1981 35.704 78.9141 35.844 78.5941 35.964C78.2821 36.084 77.9261 36.144 77.5261 36.144ZM75.6901 32.616H78.8101C78.8101 32.024 78.6821 31.576 78.4261 31.272C78.1781 30.96 77.8261 30.804 77.3701 30.804C76.9621 30.804 76.5941 30.964 76.2661 31.284C75.9461 31.596 75.7541 32.04 75.6901 32.616ZM83.5073 36.144C82.7793 36.144 82.1953 35.88 81.7553 35.352C81.3153 34.816 81.0953 34.064 81.0953 33.096C81.0953 32.464 81.2113 31.92 81.4433 31.464C81.6833 31 81.9953 30.644 82.3793 30.396C82.7713 30.148 83.1873 30.024 83.6273 30.024C83.9633 30.024 84.2553 30.084 84.5033 30.204C84.7513 30.324 85.0033 30.488 85.2593 30.696L85.2113 29.7V27.456H86.2073V36H85.3913L85.3073 35.316H85.2713C85.0473 35.54 84.7833 35.736 84.4793 35.904C84.1753 36.064 83.8513 36.144 83.5073 36.144ZM83.7233 35.316C84.2353 35.316 84.7313 35.048 85.2113 34.512V31.464C84.9633 31.24 84.7233 31.084 84.4913 30.996C84.2673 30.9 84.0353 30.852 83.7953 30.852C83.4833 30.852 83.1993 30.948 82.9433 31.14C82.6953 31.324 82.4953 31.584 82.3433 31.92C82.1913 32.248 82.1152 32.636 82.1152 33.084C82.1152 33.78 82.2553 34.328 82.5353 34.728C82.8153 35.12 83.2113 35.316 83.7233 35.316ZM88.5715 36V30.168H89.3875L89.4715 31.008H89.5075C89.7875 30.728 90.0835 30.496 90.3955 30.312C90.7075 30.12 91.0635 30.024 91.4635 30.024C92.0795 30.024 92.5275 30.22 92.8075 30.612C93.0955 30.996 93.2395 31.56 93.2395 32.304V36H92.2555V32.436C92.2555 31.892 92.1675 31.496 91.9915 31.248C91.8155 31 91.5355 30.876 91.1515 30.876C90.8555 30.876 90.5875 30.952 90.3475 31.104C90.1155 31.256 89.8515 31.48 89.5555 31.776V36H88.5715ZM95.63 38.508C95.502 38.508 95.378 38.496 95.258 38.472C95.146 38.448 95.042 38.42 94.946 38.388L95.138 37.608C95.202 37.624 95.274 37.64 95.354 37.656C95.434 37.68 95.51 37.692 95.582 37.692C95.91 37.692 96.182 37.572 96.398 37.332C96.614 37.1 96.782 36.804 96.902 36.444L97.034 36.012L94.694 30.168H95.714L96.902 33.396C96.99 33.644 97.082 33.912 97.178 34.2C97.282 34.488 97.378 34.768 97.466 35.04H97.514C97.602 34.776 97.686 34.5 97.766 34.212C97.846 33.924 97.926 33.652 98.006 33.396L99.05 30.168H100.01L97.814 36.48C97.678 36.864 97.514 37.208 97.322 37.512C97.138 37.816 96.906 38.056 96.626 38.232C96.354 38.416 96.022 38.508 95.63 38.508ZM97.298 29.124L96.794 28.632L98.486 26.628L99.182 27.288L97.298 29.124ZM104.338 38.46V30.168H105.154L105.238 30.84H105.274C105.538 30.616 105.826 30.424 106.138 30.264C106.458 30.104 106.79 30.024 107.134 30.024C107.886 30.024 108.458 30.296 108.85 30.84C109.242 31.376 109.438 32.096 109.438 33C109.438 33.656 109.318 34.22 109.078 34.692C108.846 35.164 108.538 35.524 108.154 35.772C107.778 36.02 107.366 36.144 106.918 36.144C106.646 36.144 106.374 36.084 106.102 35.964C105.838 35.844 105.57 35.68 105.298 35.472L105.322 36.492V38.46H104.338ZM106.75 35.316C107.23 35.316 107.626 35.112 107.938 34.704C108.258 34.288 108.418 33.72 108.418 33C108.418 32.36 108.298 31.844 108.058 31.452C107.826 31.052 107.434 30.852 106.882 30.852C106.634 30.852 106.382 30.92 106.126 31.056C105.878 31.192 105.61 31.388 105.322 31.644V34.704C105.586 34.928 105.842 35.088 106.09 35.184C106.338 35.272 106.558 35.316 106.75 35.316ZM113.662 36.144C113.19 36.144 112.746 36.024 112.33 35.784C111.922 35.544 111.59 35.196 111.334 34.74C111.086 34.284 110.962 33.736 110.962 33.096C110.962 32.44 111.086 31.884 111.334 31.428C111.59 30.972 111.922 30.624 112.33 30.384C112.746 30.144 113.19 30.024 113.662 30.024C114.142 30.024 114.586 30.144 114.994 30.384C115.402 30.624 115.73 30.972 115.978 31.428C116.234 31.884 116.362 32.44 116.362 33.096C116.362 33.736 116.234 34.284 115.978 34.74C115.73 35.196 115.402 35.544 114.994 35.784C114.586 36.024 114.142 36.144 113.662 36.144ZM113.662 35.328C114.166 35.328 114.57 35.124 114.874 34.716C115.186 34.3 115.342 33.76 115.342 33.096C115.342 32.424 115.186 31.88 114.874 31.464C114.57 31.048 114.166 30.84 113.662 30.84C113.166 30.84 112.762 31.048 112.45 31.464C112.138 31.88 111.982 32.424 111.982 33.096C111.982 33.76 112.138 34.3 112.45 34.716C112.762 35.124 113.166 35.328 113.662 35.328ZM118.298 36V30.168H119.114L119.198 31.224H119.234C119.434 30.856 119.678 30.564 119.966 30.348C120.254 30.132 120.562 30.024 120.89 30.024C121.122 30.024 121.33 30.064 121.514 30.144L121.322 31.008C121.226 30.976 121.138 30.952 121.058 30.936C120.978 30.92 120.878 30.912 120.758 30.912C120.51 30.912 120.25 31.012 119.978 31.212C119.714 31.412 119.482 31.76 119.282 32.256V36H118.298ZM124.694 36.144C124.07 36.144 123.634 35.964 123.386 35.604C123.146 35.244 123.026 34.776 123.026 34.2V30.972H122.162V30.228L123.074 30.168L123.194 28.536H124.022V30.168H125.594V30.972H124.022V34.212C124.022 34.572 124.086 34.852 124.214 35.052C124.35 35.244 124.586 35.34 124.922 35.34C125.026 35.34 125.138 35.324 125.258 35.292C125.378 35.252 125.486 35.216 125.582 35.184L125.774 35.928C125.614 35.984 125.438 36.032 125.246 36.072C125.062 36.12 124.878 36.144 124.694 36.144ZM128.399 36.144C127.911 36.144 127.503 36 127.175 35.712C126.855 35.416 126.695 35.008 126.695 34.488C126.695 33.848 126.979 33.36 127.547 33.024C128.123 32.68 129.031 32.44 130.271 32.304C130.271 32.056 130.235 31.82 130.163 31.596C130.099 31.372 129.979 31.192 129.803 31.056C129.635 30.912 129.391 30.84 129.071 30.84C128.735 30.84 128.419 30.904 128.123 31.032C127.827 31.16 127.563 31.304 127.331 31.464L126.947 30.78C127.219 30.604 127.551 30.436 127.943 30.276C128.343 30.108 128.775 30.024 129.239 30.024C129.951 30.024 130.467 30.244 130.787 30.684C131.107 31.116 131.267 31.696 131.267 32.424V36H130.451L130.367 35.304H130.331C130.059 35.528 129.759 35.724 129.431 35.892C129.111 36.06 128.767 36.144 128.399 36.144ZM128.687 35.352C128.967 35.352 129.231 35.284 129.479 35.148C129.727 35.012 129.991 34.82 130.271 34.572V32.952C129.303 33.072 128.623 33.252 128.231 33.492C127.847 33.732 127.655 34.04 127.655 34.416C127.655 34.744 127.755 34.984 127.955 35.136C128.155 35.28 128.399 35.352 128.687 35.352ZM129.107 29.124L128.603 28.632L130.295 26.628L130.991 27.288L129.107 29.124ZM134.546 36.144C134.178 36.144 133.91 36.032 133.742 35.808C133.582 35.576 133.502 35.248 133.502 34.824V27.456H134.486V34.896C134.486 35.048 134.514 35.16 134.57 35.232C134.626 35.296 134.69 35.328 134.762 35.328C134.794 35.328 134.822 35.328 134.846 35.328C134.878 35.32 134.922 35.312 134.978 35.304L135.11 36.048C135.046 36.08 134.97 36.104 134.882 36.12C134.794 36.136 134.682 36.144 134.546 36.144ZM141.023 36L138.923 30.168H139.943L141.047 33.48C141.135 33.768 141.223 34.056 141.311 34.344C141.407 34.632 141.499 34.916 141.587 35.196H141.635C141.723 34.916 141.811 34.632 141.899 34.344C141.995 34.056 142.083 33.768 142.163 33.48L143.267 30.168H144.239L142.175 36H141.023ZM148.082 36.144C147.562 36.144 147.09 36.024 146.666 35.784C146.242 35.536 145.906 35.184 145.658 34.728C145.41 34.272 145.286 33.728 145.286 33.096C145.286 32.456 145.41 31.908 145.658 31.452C145.914 30.996 146.242 30.644 146.642 30.396C147.042 30.148 147.462 30.024 147.902 30.024C148.646 30.024 149.218 30.272 149.618 30.768C150.026 31.264 150.23 31.928 150.23 32.76C150.23 32.864 150.226 32.968 150.218 33.072C150.218 33.168 150.21 33.252 150.194 33.324H146.258C146.298 33.94 146.49 34.432 146.834 34.8C147.186 35.168 147.642 35.352 148.202 35.352C148.482 35.352 148.738 35.312 148.97 35.232C149.21 35.144 149.438 35.032 149.654 34.896L150.002 35.544C149.754 35.704 149.47 35.844 149.15 35.964C148.838 36.084 148.482 36.144 148.082 36.144ZM146.246 32.616H149.366C149.366 32.024 149.238 31.576 148.982 31.272C148.734 30.96 148.382 30.804 147.926 30.804C147.518 30.804 147.15 30.964 146.822 31.284C146.502 31.596 146.31 32.04 146.246 32.616ZM152.071 36V30.168H152.887L152.971 31.224H153.007C153.207 30.856 153.451 30.564 153.739 30.348C154.027 30.132 154.335 30.024 154.663 30.024C154.895 30.024 155.103 30.064 155.287 30.144L155.095 31.008C154.999 30.976 154.911 30.952 154.831 30.936C154.751 30.92 154.651 30.912 154.531 30.912C154.283 30.912 154.023 31.012 153.751 31.212C153.487 31.412 153.255 31.76 153.055 32.256V36H152.071ZM158.878 36.144C158.358 36.144 157.886 36.024 157.462 35.784C157.038 35.536 156.702 35.184 156.454 34.728C156.206 34.272 156.082 33.728 156.082 33.096C156.082 32.456 156.206 31.908 156.454 31.452C156.71 30.996 157.038 30.644 157.438 30.396C157.838 30.148 158.258 30.024 158.698 30.024C159.442 30.024 160.014 30.272 160.414 30.768C160.822 31.264 161.026 31.928 161.026 32.76C161.026 32.864 161.022 32.968 161.014 33.072C161.014 33.168 161.006 33.252 160.99 33.324H157.054C157.094 33.94 157.286 34.432 157.63 34.8C157.982 35.168 158.438 35.352 158.998 35.352C159.278 35.352 159.534 35.312 159.766 35.232C160.006 35.144 160.234 35.032 160.45 34.896L160.798 35.544C160.55 35.704 160.266 35.844 159.946 35.964C159.634 36.084 159.278 36.144 158.878 36.144ZM157.042 32.616H160.162C160.162 32.024 160.034 31.576 159.778 31.272C159.53 30.96 159.178 30.804 158.722 30.804C158.314 30.804 157.946 30.964 157.618 31.284C157.298 31.596 157.106 32.04 157.042 32.616ZM162.267 38.604C162.091 38.604 161.931 38.588 161.787 38.556C161.635 38.524 161.507 38.488 161.403 38.448L161.607 37.704C161.679 37.728 161.763 37.748 161.859 37.764C161.955 37.788 162.055 37.8 162.159 37.8C162.447 37.8 162.639 37.696 162.735 37.488C162.831 37.288 162.879 37.012 162.879 36.66V30.168H163.863V36.66C163.863 37.252 163.743 37.724 163.503 38.076C163.263 38.428 162.851 38.604 162.267 38.604ZM163.359 28.968C163.167 28.968 163.007 28.912 162.879 28.8C162.759 28.68 162.699 28.52 162.699 28.32C162.699 28.128 162.759 27.972 162.879 27.852C163.007 27.732 163.167 27.672 163.359 27.672C163.551 27.672 163.707 27.732 163.827 27.852C163.955 27.972 164.019 28.128 164.019 28.32C164.019 28.52 163.955 28.68 163.827 28.8C163.707 28.912 163.551 28.968 163.359 28.968ZM166.232 36V30.168H167.048L167.132 31.008H167.168C167.448 30.728 167.744 30.496 168.056 30.312C168.368 30.12 168.724 30.024 169.124 30.024C169.74 30.024 170.188 30.22 170.468 30.612C170.756 30.996 170.9 31.56 170.9 32.304V36H169.916V32.436C169.916 31.892 169.828 31.496 169.652 31.248C169.476 31 169.196 30.876 168.812 30.876C168.516 30.876 168.248 30.952 168.008 31.104C167.776 31.256 167.512 31.48 167.216 31.776V36H166.232ZM175.558 36.144C175.038 36.144 174.566 36.024 174.142 35.784C173.718 35.536 173.382 35.184 173.134 34.728C172.886 34.272 172.762 33.728 172.762 33.096C172.762 32.456 172.886 31.908 173.134 31.452C173.39 30.996 173.718 30.644 174.118 30.396C174.518 30.148 174.938 30.024 175.378 30.024C176.122 30.024 176.694 30.272 177.094 30.768C177.502 31.264 177.706 31.928 177.706 32.76C177.706 32.864 177.702 32.968 177.694 33.072C177.694 33.168 177.686 33.252 177.67 33.324H173.734C173.774 33.94 173.966 34.432 174.31 34.8C174.662 35.168 175.118 35.352 175.678 35.352C175.958 35.352 176.214 35.312 176.446 35.232C176.686 35.144 176.914 35.032 177.13 34.896L177.478 35.544C177.23 35.704 176.946 35.844 176.626 35.964C176.314 36.084 175.958 36.144 175.558 36.144ZM173.722 32.616H176.842C176.842 32.024 176.714 31.576 176.458 31.272C176.21 30.96 175.858 30.804 175.402 30.804C174.994 30.804 174.626 30.964 174.298 31.284C173.978 31.596 173.786 32.04 173.722 32.616ZM178.947 38.604C178.771 38.604 178.611 38.588 178.467 38.556C178.315 38.524 178.187 38.488 178.083 38.448L178.287 37.704C178.359 37.728 178.443 37.748 178.539 37.764C178.635 37.788 178.735 37.8 178.839 37.8C179.127 37.8 179.319 37.696 179.415 37.488C179.511 37.288 179.559 37.012 179.559 36.66V30.168H180.543V36.66C180.543 37.252 180.423 37.724 180.183 38.076C179.943 38.428 179.531 38.604 178.947 38.604ZM180.039 28.968C179.847 28.968 179.687 28.912 179.559 28.8C179.439 28.68 179.379 28.52 179.379 28.32C179.379 28.128 179.439 27.972 179.559 27.852C179.687 27.732 179.847 27.672 180.039 27.672C180.231 27.672 180.387 27.732 180.507 27.852C180.635 27.972 180.699 28.128 180.699 28.32C180.699 28.52 180.635 28.68 180.507 28.8C180.387 28.912 180.231 28.968 180.039 28.968ZM187.238 36.144C186.822 36.144 186.426 36.068 186.05 35.916C185.674 35.756 185.346 35.564 185.066 35.34L185.558 34.68C185.814 34.88 186.078 35.048 186.35 35.184C186.622 35.312 186.93 35.376 187.274 35.376C187.658 35.376 187.946 35.288 188.138 35.112C188.33 34.928 188.426 34.712 188.426 34.464C188.426 34.264 188.358 34.096 188.222 33.96C188.094 33.824 187.926 33.712 187.718 33.624C187.518 33.528 187.31 33.44 187.094 33.36C186.822 33.256 186.554 33.14 186.29 33.012C186.026 32.876 185.81 32.704 185.642 32.496C185.474 32.28 185.39 32.008 185.39 31.68C185.39 31.208 185.566 30.816 185.918 30.504C186.278 30.184 186.774 30.024 187.406 30.024C187.766 30.024 188.102 30.088 188.414 30.216C188.726 30.344 188.994 30.5 189.218 30.684L188.738 31.308C188.538 31.156 188.33 31.032 188.114 30.936C187.898 30.84 187.662 30.792 187.406 30.792C187.038 30.792 186.766 30.876 186.59 31.044C186.422 31.212 186.338 31.408 186.338 31.632C186.338 31.816 186.398 31.968 186.518 32.088C186.638 32.2 186.794 32.3 186.986 32.388C187.178 32.468 187.382 32.552 187.598 32.64C187.878 32.744 188.154 32.864 188.426 33C188.698 33.128 188.922 33.304 189.098 33.528C189.282 33.744 189.374 34.036 189.374 34.404C189.374 34.716 189.29 35.004 189.122 35.268C188.962 35.532 188.722 35.744 188.402 35.904C188.09 36.064 187.702 36.144 187.238 36.144ZM191.142 38.46V30.168H191.958L192.042 30.84H192.078C192.342 30.616 192.63 30.424 192.942 30.264C193.262 30.104 193.594 30.024 193.938 30.024C194.69 30.024 195.262 30.296 195.654 30.84C196.046 31.376 196.242 32.096 196.242 33C196.242 33.656 196.122 34.22 195.882 34.692C195.65 35.164 195.342 35.524 194.958 35.772C194.582 36.02 194.17 36.144 193.722 36.144C193.45 36.144 193.178 36.084 192.906 35.964C192.642 35.844 192.374 35.68 192.102 35.472L192.126 36.492V38.46H191.142ZM193.554 35.316C194.034 35.316 194.43 35.112 194.742 34.704C195.062 34.288 195.222 33.72 195.222 33C195.222 32.36 195.102 31.844 194.862 31.452C194.63 31.052 194.238 30.852 193.686 30.852C193.438 30.852 193.186 30.92 192.93 31.056C192.682 31.192 192.414 31.388 192.126 31.644V34.704C192.39 34.928 192.646 35.088 192.894 35.184C193.142 35.272 193.362 35.316 193.554 35.316ZM198.198 36V30.168H199.014L199.098 31.224H199.134C199.334 30.856 199.578 30.564 199.866 30.348C200.154 30.132 200.462 30.024 200.79 30.024C201.022 30.024 201.23 30.064 201.414 30.144L201.222 31.008C201.126 30.976 201.038 30.952 200.958 30.936C200.878 30.92 200.778 30.912 200.658 30.912C200.41 30.912 200.15 31.012 199.878 31.212C199.614 31.412 199.382 31.76 199.182 32.256V36H198.198ZM203.809 36.144C203.321 36.144 202.913 36 202.585 35.712C202.265 35.416 202.105 35.008 202.105 34.488C202.105 33.848 202.389 33.36 202.957 33.024C203.533 32.68 204.441 32.44 205.681 32.304C205.681 32.056 205.645 31.82 205.573 31.596C205.509 31.372 205.389 31.192 205.213 31.056C205.045 30.912 204.801 30.84 204.481 30.84C204.145 30.84 203.829 30.904 203.533 31.032C203.237 31.16 202.973 31.304 202.741 31.464L202.357 30.78C202.629 30.604 202.961 30.436 203.353 30.276C203.753 30.108 204.185 30.024 204.649 30.024C205.361 30.024 205.877 30.244 206.197 30.684C206.517 31.116 206.677 31.696 206.677 32.424V36H205.861L205.777 35.304H205.741C205.469 35.528 205.169 35.724 204.841 35.892C204.521 36.06 204.177 36.144 203.809 36.144ZM204.097 35.352C204.377 35.352 204.641 35.284 204.889 35.148C205.137 35.012 205.401 34.82 205.681 34.572V32.952C204.713 33.072 204.033 33.252 203.641 33.492C203.257 33.732 203.065 34.04 203.065 34.416C203.065 34.744 203.165 34.984 203.365 35.136C203.565 35.28 203.809 35.352 204.097 35.352ZM204.517 29.124L204.013 28.632L205.705 26.628L206.401 27.288L204.517 29.124ZM210.172 36L208.072 30.168H209.092L210.196 33.48C210.284 33.768 210.372 34.056 210.46 34.344C210.556 34.632 210.648 34.916 210.736 35.196H210.784C210.872 34.916 210.96 34.632 211.048 34.344C211.144 34.056 211.232 33.768 211.312 33.48L212.416 30.168H213.388L211.324 36H210.172ZM215.01 38.508C214.882 38.508 214.758 38.496 214.638 38.472C214.526 38.448 214.422 38.42 214.326 38.388L214.518 37.608C214.582 37.624 214.654 37.64 214.734 37.656C214.814 37.68 214.89 37.692 214.962 37.692C215.29 37.692 215.562 37.572 215.778 37.332C215.994 37.1 216.162 36.804 216.282 36.444L216.414 36.012L214.074 30.168H215.094L216.282 33.396C216.37 33.644 216.462 33.912 216.558 34.2C216.662 34.488 216.758 34.768 216.846 35.04H216.894C216.982 34.776 217.066 34.5 217.146 34.212C217.226 33.924 217.306 33.652 217.386 33.396L218.43 30.168H219.39L217.194 36.48C217.058 36.864 216.894 37.208 216.702 37.512C216.518 37.816 216.286 38.056 216.006 38.232C215.734 38.416 215.402 38.508 215.01 38.508Z" fill="black"/>
<defs>
<filter id="filter0_d_1023_1867" x="-6.34786" y="-6.97763" width="52.6952" height="57.0951" filterUnits="userSpaceOnUse" color-interpolation-filters="sRGB">
<feFlood flood-opacity="0" result="BackgroundImageFix"/>
<feColorMatrix in="SourceAlpha" type="matrix" values="0 0 0 0 0 0 0 0 0 0 0 0 0 0 0 0 0 0 127 0" result="hardAlpha"/>
<feOffset dy="1.40392"/>
<feGaussianBlur stdDeviation="8.52378"/>
<feComposite in2="hardAlpha" operator="out"/>
<feColorMatrix type="matrix" values="0 0 0 0 0 0 0 0 0 0 0 0 0 0 0 0 0 0 0.55 0"/>
<feBlend mode="normal" in2="BackgroundImageFix" result="effect1_dropShadow_1023_1867"/>
<feBlend mode="normal" in="SourceGraphic" in2="effect1_dropShadow_1023_1867" result="shape"/>
</filter>
<clipPath id="clip0_1023_1867">
<rect width="40" height="40" rx="8.02238" transform="matrix(-1 0 0 1 40 0)" fill="white"/>
</clipPath>
</defs>
</svg>
