<svg width="26" height="26" viewBox="5 2 26 26" fill="none" xmlns="http://www.w3.org/2000/svg">
    <g clip-path="url(#clip0_3390_18917)">
        <path d="M17.3235 8.16282L14.9901 10.4963C14.5623 10.9241 14.5623 11.6241 14.9901 12.0519C15.4179 12.4797 16.1179 12.4797 16.5457 12.0519L18.8791 9.71845C20.1625 8.43505 22.2627 8.43505 23.5461 9.71845C24.8295 11.0018 24.8295 13.102 23.5461 14.3854L21.2126 16.7188C20.7848 17.1466 20.7848 17.8466 21.2126 18.2744C21.6404 18.7022 22.3404 18.7022 22.7682 18.2744L25.1017 15.941C27.2485 13.7942 27.2485 10.3096 25.1017 8.16282C22.9549 6.01604 19.4703 6.01604 17.3235 8.16282ZM14.2122 19.0523C14.64 19.4801 15.3401 19.4801 15.7679 19.0523L20.4348 14.3854C20.8626 13.9576 20.8626 13.2575 20.4348 12.8297C20.007 12.4019 19.3069 12.4019 18.8791 12.8297L14.2122 17.4966C13.7844 17.9244 13.7844 18.6245 14.2122 19.0523ZM18.1013 19.8301L15.7679 22.1635C14.4845 23.4469 12.3844 23.4469 11.101 22.1635C9.81757 20.8801 9.81757 18.78 11.101 17.4966L13.4344 15.1632C13.8622 14.7354 13.8622 14.0353 13.4344 13.6075C13.0066 13.1797 12.3066 13.1797 11.8788 13.6075L9.54534 15.941C7.39856 18.0878 7.39856 21.5724 9.54534 23.7192C11.6921 25.8659 15.1767 25.8659 17.3235 23.7192L19.657 21.3857C20.0848 20.9579 20.0848 20.2579 19.657 19.8301C19.2292 19.4023 18.5291 19.4023 18.1013 19.8301Z" fill="current"/>
    </g>
    <defs>
        <clipPath id="clip0_3390_18917">
            <rect width="26" height="26" fill="white" transform="translate(0 17.002) rotate(-45)"/>
        </clipPath>
    </defs>
</svg>
