<svg width="34" height="34" viewBox="0 0 34 34" fill="none" xmlns="http://www.w3.org/2000/svg">
<g clip-path="url(#clip0_4938_96353)">
<path d="M17.3235 8.16086L14.9901 10.4943C14.5623 10.9221 14.5623 11.6222 14.9901 12.05C15.4179 12.4777 16.1179 12.4777 16.5457 12.05L18.8791 9.7165C20.1625 8.4331 22.2627 8.4331 23.5461 9.7165C24.8295 10.9999 24.8295 13.1 23.5461 14.3834L21.2126 16.7169C20.7848 17.1447 20.7848 17.8447 21.2126 18.2725C21.6404 18.7003 22.3404 18.7003 22.7682 18.2725L25.1017 15.939C27.2485 13.7923 27.2485 10.3076 25.1017 8.16086C22.9549 6.01409 19.4703 6.01409 17.3235 8.16086ZM14.2122 19.0503C14.64 19.4781 15.3401 19.4781 15.7679 19.0503L20.4348 14.3834C20.8626 13.9556 20.8626 13.2556 20.4348 12.8278C20.007 12.4 19.3069 12.4 18.8791 12.8278L14.2122 17.4947C13.7844 17.9225 13.7844 18.6225 14.2122 19.0503ZM18.1013 19.8281L15.7679 22.1616C14.4845 23.445 12.3844 23.445 11.101 22.1616C9.81757 20.8782 9.81757 18.7781 11.101 17.4947L13.4344 15.1612C13.8622 14.7334 13.8622 14.0334 13.4344 13.6056C13.0066 13.1778 12.3066 13.1778 11.8788 13.6056L9.54534 15.939C7.39856 18.0858 7.39856 21.5704 9.54534 23.7172C11.6921 25.864 15.1767 25.864 17.3235 23.7172L19.657 21.3838C20.0848 20.956 20.0848 20.2559 19.657 19.8281C19.2292 19.4003 18.5291 19.4003 18.1013 19.8281Z" fill="current"/>
</g>
<defs>
<clipPath id="clip0_4938_96353">
<rect width="24" height="24" fill="white" transform="translate(0 17) rotate(-45)"/>
</clipPath>
</defs>
</svg>
