<svg width="26" height="26" viewBox="0 0 26 26" fill="none" xmlns="http://www.w3.org/2000/svg">
<path d="M7.86228 24C17.2967 24 22.456 15.9214 22.456 8.91645C22.456 8.68693 22.4515 8.45858 22.4412 8.23112C23.4427 7.48289 24.3133 6.54893 25 5.48625C24.081 5.90827 23.0921 6.19245 22.0545 6.32058C23.1134 5.66434 23.9266 4.62576 24.3102 3.38793C23.319 3.99538 22.2214 4.43679 21.0534 4.67484C20.117 3.64449 18.784 3 17.3092 3C14.4763 3 12.1791 5.37428 12.1791 8.30077C12.1791 8.71691 12.2243 9.12129 12.3119 9.50951C8.04937 9.28822 4.26936 7.17843 1.73987 3.97099C1.29886 4.75419 1.04495 5.66464 1.04495 6.63533C1.04495 8.47445 1.95057 10.0982 3.32763 11.0483C2.48627 11.0215 1.6958 10.7823 1.00457 10.385C1.00343 10.407 1.00343 10.4294 1.00343 10.4526C1.00343 13.0202 2.77174 15.1638 5.1184 15.6496C4.68762 15.771 4.23439 15.8362 3.76636 15.8362C3.43596 15.8362 3.11466 15.8021 2.80217 15.7407C3.45501 17.8467 5.34871 19.3796 7.59386 19.4228C5.83806 20.8449 3.62647 21.6921 1.22351 21.6921C0.809799 21.6921 0.401488 21.6677 0 21.6187C2.26988 23.1222 4.96514 24 7.86228 24Z" fill="current"/>
</svg>
